<?xml version="1.0" encoding="iso-8859-1"?>
<!-- Generator: Adobe Illustrator 19.0.0, SVG Export Plug-In . SVG Version: 6.00 Build 0)  -->
<svg version="1.1" id="Capa_1" xmlns="http://www.w3.org/2000/svg" xmlns:xlink="http://www.w3.org/1999/xlink" x="0px" y="0px"
	 viewBox="0 0 511.998 511.998" style="enable-background:new 0 0 511.998 511.998;" xml:space="preserve">
<g>
	<g>
		<g>
			<path d="M496.257,267.16l-12.11-24.901c-13.462-27.679-43.51-45.564-76.553-45.564c-0.44,0-0.878,0.003-1.311,0.01
				c-0.278,0.003-2.026,0.01-4.407,0.019l-3.202,0.013c-1.4-4.81-3.403-9.377-5.928-13.62l15.001-10.962
				c0.164-0.119,0.322-0.245,0.474-0.378c14.851-12.868,25.232-30.552,29.229-49.794c0.821-3.95-1.716-7.818-5.666-8.637
				c-3.948-0.821-7.817,1.716-8.637,5.666c-3.378,16.261-11.767,30.614-24.268,41.53l-15.037,10.988
				c-7.36-7.347-16.525-12.547-26.93-15.278c-0.157-0.042-0.313-0.084-0.47-0.124c-0.885-0.225-1.775-0.438-2.677-0.627
				l-23.465-4.918l20.469-12.025c32.39-16.5,51.613-50.555,48.988-86.827l-1.628-22.505l19.704,42.899
				c2.854,6.213,4.85,12.769,5.934,19.486c0.643,3.982,4.391,6.698,8.376,6.047c3.982-0.643,6.69-4.393,6.047-8.376
				c-1.294-8.019-3.677-15.843-7.081-23.254L403.819,6.61c-2.324-5.057-7.71-7.621-13.1-6.238c-5.39,1.385-8.874,6.228-8.473,11.778
				l2.94,40.634c2.204,30.458-13.977,59.051-41.224,72.844c-0.136,0.068-0.269,0.142-0.401,0.219l-34.518,20.28l-17.786-3.728
				c-26.183-5.486-53.688-5.344-79.777,0.42l-10.285,2.272l-32.756-19.244c-0.132-0.077-0.265-0.15-0.401-0.219
				c-27.246-13.792-43.428-42.385-41.224-72.844l2.94-40.633c0.232-3.196-0.814-6.217-2.944-8.506
				c-2.15-2.311-5.213-3.637-8.404-3.637c-4.437,0-8.354,2.53-10.224,6.603l-27.29,59.417c-8.207,17.869-10.347,37.472-6.188,56.691
				s14.212,36.183,29.073,49.06c0.153,0.132,0.311,0.259,0.474,0.378l13.482,9.85c-2.797,4.601-4.936,9.552-6.373,14.723
				l-0.894-0.004c-2.541-0.01-4.436-0.017-4.741-0.021c-33.616-0.466-64.181,17.399-77.874,45.555l-12.11,24.901
				c-2.044,4.204-2.248,8.913-0.574,13.261c1.739,4.512,5.415,8.179,10.088,10.06l27.373,11.016c3.742,1.505,7.998-0.307,9.504-4.05
				c1.507-3.743-0.307-7.997-4.049-9.504l-27.376-11.016c-0.927-0.374-1.623-1.015-1.91-1.76c-0.211-0.547-0.185-1.077,0.078-1.619
				l12.11-24.901c11.225-23.083,36.555-37.711,64.524-37.337c0.25,0.004,1.669,0.01,3.676,0.018
				c-0.007,0.26-0.001,0.521-0.004,0.781c-0.006,0.453-0.012,0.906-0.008,1.361c0.004,0.476,0.019,0.952,0.035,1.428
				c0.013,0.404,0.022,0.807,0.043,1.211c0.029,0.565,0.073,1.13,0.118,1.695c0.026,0.323,0.043,0.646,0.074,0.969
				c0.084,0.894,0.185,1.787,0.308,2.679l9.659,69.992c-9.327,1.595-20.352,2.236-31.234,1.769
				c-4.028-0.162-7.437,2.955-7.611,6.985c-0.173,4.031,2.955,7.438,6.986,7.611c2.504,0.108,5.019,0.16,7.527,0.16
				c9.187,0,18.271-0.71,26.329-2.052l2.119,15.352c2.166,16.043,10.734,30.945,24.126,41.963
				c8.836,7.271,14.837,16.56,16.898,26.159l8.766,40.816c0.122,0.567,0.267,1.137,0.424,1.71
				c-1.837,3.853-3.264,7.904-4.235,12.084c-1.983,8.538-1.52,15.112,1.416,20.097c5.776,9.81,16.665,16.09,34.996,19.517
				c3.447,17.89,15.8,28.382,33.915,28.382h32.329c18.248,0,30.628-10.627,33.978-28.74c17.22-3.499,27.569-9.682,33.149-19.158
				c2.935-4.985,3.398-11.558,1.416-20.097c-0.964-4.151-2.377-8.175-4.196-12.004c0.165-0.598,0.318-1.194,0.446-1.789
				l8.767-40.818c2.062-9.599,8.064-18.889,16.9-26.158c13.392-11.02,21.96-25.922,24.123-41.942l2.163-15.669
				c8.419,1.526,18.084,2.346,28.01,2.346c0.001,0,0.002,0,0.003,0c16.755,0,32.227-2.36,42.448-6.472l27.374-11.017
				c4.672-1.88,8.349-5.548,10.088-10.061C498.504,276.072,498.301,271.363,496.257,267.16z M113.116,160.543
				c-25.038-21.874-32.837-58.186-18.952-88.419l19.703-42.898l-1.628,22.504c-2.624,36.272,16.599,70.327,48.989,86.827
				l19.003,11.165l-24.428,5.397c-0.86,0.19-1.709,0.402-2.553,0.625c-0.188,0.05-0.375,0.103-0.563,0.154
				c-0.759,0.208-1.511,0.429-2.256,0.663c-0.07,0.022-0.14,0.043-0.21,0.065c-8.914,2.839-16.846,7.565-23.383,13.943
				L113.116,160.543z M272.161,497.391h-32.329c-3.768,0-13.898,0-18.259-11.68c0.275,0.025,0.563,0.046,0.841,0.07
				c0.636,0.055,1.275,0.109,1.924,0.159c0.551,0.043,1.112,0.083,1.673,0.122c0.586,0.042,1.17,0.083,1.766,0.122
				c0.642,0.041,1.298,0.078,1.953,0.116c0.545,0.031,1.086,0.063,1.639,0.092c0.726,0.038,1.469,0.07,2.211,0.103
				c0.514,0.023,1.022,0.047,1.544,0.068c0.798,0.031,1.615,0.058,2.431,0.084c0.49,0.016,0.972,0.034,1.469,0.049
				c0.874,0.025,1.769,0.044,2.664,0.063c0.464,0.01,0.918,0.023,1.386,0.031c0.976,0.018,1.977,0.029,2.979,0.041
				c0.406,0.005,0.802,0.012,1.212,0.016c1.418,0.012,2.859,0.019,4.327,0.019c1.178,0,2.334-0.048,3.511-0.146
				c1.178,0.099,2.334,0.146,3.511,0.146h0.001c0.012,0,0.023,0,0.034,0c1.502,0,2.979-0.007,4.432-0.02
				c0.526-0.005,1.032-0.015,1.551-0.021c0.926-0.012,1.856-0.022,2.762-0.039c0.608-0.011,1.195-0.029,1.794-0.042
				c0.794-0.019,1.595-0.035,2.374-0.058c0.608-0.018,1.195-0.042,1.793-0.062c0.748-0.026,1.503-0.05,2.237-0.08
				c0.575-0.024,1.13-0.052,1.695-0.079c0.734-0.034,1.474-0.066,2.194-0.105c0.516-0.028,1.015-0.06,1.524-0.09
				c0.752-0.044,1.507-0.087,2.243-0.137c0.421-0.028,0.827-0.061,1.242-0.091c0.806-0.058,1.613-0.116,2.399-0.18
				c0.299-0.025,0.586-0.052,0.882-0.078c0.891-0.076,1.778-0.154,2.644-0.239c0.023-0.005,0.047-0.006,0.069-0.008
				C286.162,497.391,275.955,497.391,272.161,497.391z M326.699,456.688c-5.855,9.943-25.192,14.913-60.62,15.506
				c-0.099,0.002-0.198,0.003-0.298,0.005c-0.986,0.016-1.989,0.027-3,0.036c-0.221,0.002-0.438,0.005-0.661,0.006
				c-1.153,0.009-2.319,0.014-3.504,0.014c-0.619,0-1.234-0.028-1.852-0.07c-0.309-0.021-0.617-0.039-0.932-0.071
				c-0.242-0.024-0.485-0.036-0.728-0.036s-0.486,0.012-0.728,0.036c-0.944,0.095-1.854,0.141-2.783,0.141
				c-1.17,0-2.32-0.005-3.458-0.014c-0.224-0.001-0.443-0.004-0.666-0.006c-1.047-0.009-2.085-0.021-3.105-0.038
				c-0.048-0.001-0.097-0.001-0.146-0.002c-35.485-0.587-54.849-5.557-60.708-15.508c-0.677-1.15-0.973-4.217,0.226-9.38
				c4.156-17.894,19.165-31.515,37.192-34.755c0.254-0.045,0.507-0.088,0.762-0.129c0.494-0.081,0.989-0.16,1.488-0.225
				c0.799-0.101,1.602-0.182,2.41-0.243c0.271-0.021,0.543-0.036,0.814-0.053c0.923-0.054,1.85-0.093,2.783-0.093h51.839
				c0.934,0,1.861,0.04,2.785,0.094c0.273,0.016,0.547,0.032,0.819,0.053c0.806,0.061,1.607,0.142,2.403,0.242
				c0.507,0.066,1.011,0.147,1.514,0.229c0.241,0.038,0.482,0.08,0.722,0.122c18.034,3.236,33.049,16.859,37.206,34.759
				C327.672,452.472,327.376,455.539,326.699,456.688z M386.418,214.589c-0.012,0.474-0.032,0.948-0.058,1.422
				c-0.018,0.306-0.04,0.614-0.064,0.921c-0.025,0.329-0.047,0.658-0.079,0.987c-0.065,0.671-0.139,1.344-0.233,2.021
				l-13.717,99.383c-1.669,12.371-8.392,23.961-18.928,32.63c-11.372,9.356-19.15,21.563-21.902,34.372l-6.298,29.329
				c-9.543-9.769-22.224-16.117-36.051-17.914c-0.258-0.034-0.515-0.067-0.773-0.097c-0.575-0.067-1.15-0.13-1.729-0.181
				c-0.485-0.044-0.972-0.077-1.458-0.11c-0.419-0.027-0.837-0.06-1.257-0.079c-0.947-0.044-1.896-0.071-2.846-0.071h-51.839
				c-0.95,0-1.898,0.027-2.845,0.071c-0.417,0.019-0.831,0.052-1.246,0.079c-0.491,0.033-0.982,0.066-1.472,0.111
				c-0.571,0.051-1.139,0.113-1.706,0.179c-0.271,0.032-0.542,0.066-0.813,0.102c-13.792,1.797-26.448,8.128-35.982,17.862
				l-6.288-29.28c-2.751-12.808-10.529-25.015-21.9-34.372c-10.536-8.669-17.259-20.259-18.933-32.657l-3.183-23.067
				c0-0.002,0-0.005-0.001-0.007l-10.594-76.764c-0.092-0.668-0.165-1.333-0.23-1.996c-0.028-0.295-0.049-0.589-0.072-0.884
				c-0.026-0.337-0.051-0.674-0.07-1.009c-0.023-0.417-0.042-0.834-0.054-1.251c-0.005-0.151-0.007-0.302-0.011-0.452
				c-0.057-2.89,0.149-5.768,0.624-8.603c0.023-0.135,0.03-0.27,0.045-0.405c1.273-7.279,4.28-13.952,8.699-19.556
				c0.118-0.127,0.24-0.25,0.35-0.387c3.442-4.268,7.603-7.792,12.323-10.494c0.236-0.135,0.469-0.273,0.709-0.404
				c0.281-0.154,0.567-0.3,0.851-0.448c0.327-0.17,0.653-0.339,0.986-0.502c0.252-0.123,0.507-0.242,0.761-0.36
				c0.371-0.173,0.744-0.343,1.122-0.507c0.242-0.105,0.486-0.208,0.731-0.309c0.397-0.164,0.797-0.323,1.201-0.477
				c0.239-0.091,0.479-0.183,0.72-0.27c0.42-0.152,0.845-0.297,1.272-0.438c0.234-0.077,0.466-0.157,0.702-0.231
				c0.462-0.145,0.93-0.279,1.4-0.411c0.207-0.058,0.411-0.121,0.619-0.176c0.677-0.181,1.361-0.35,2.054-0.503l42.586-9.408
				c0.002,0,0.003-0.001,0.004-0.001l13.082-2.89c24.075-5.317,49.465-5.451,73.628-0.386l62.509,13.102
				c0.712,0.149,1.415,0.315,2.111,0.493c0.199,0.051,0.394,0.109,0.591,0.163c0.493,0.133,0.984,0.267,1.468,0.414
				c0.242,0.073,0.481,0.154,0.721,0.231c0.429,0.138,0.858,0.277,1.28,0.426c0.269,0.095,0.535,0.196,0.801,0.295
				c0.378,0.141,0.755,0.284,1.127,0.434c0.301,0.121,0.6,0.247,0.898,0.375c0.314,0.134,0.626,0.271,0.936,0.411
				c0.351,0.16,0.7,0.323,1.047,0.491c0.225,0.109,0.447,0.22,0.67,0.333c0.426,0.216,0.85,0.435,1.267,0.663
				c0.1,0.055,0.199,0.111,0.299,0.166c5.048,2.815,9.464,6.567,13.072,11.159c0.185,0.235,0.382,0.455,0.588,0.661
				c3.972,5.258,6.729,11.414,8.003,18.114c0.018,0.238,0.044,0.476,0.086,0.713c0.521,2.942,0.752,5.935,0.696,8.945
				C386.423,214.39,386.421,214.489,386.418,214.589z M483.196,275.167c-0.286,0.746-0.984,1.387-1.909,1.76l-27.373,11.016
				c-8.554,3.442-22.039,5.417-36.997,5.417c-9.34,0-18.34-0.777-26.011-2.219l9.552-69.209c0.129-0.933,0.233-1.867,0.32-2.801
				c0.029-0.311,0.044-0.62,0.068-0.93c0.048-0.623,0.095-1.245,0.125-1.868c0.017-0.352,0.022-0.702,0.032-1.053
				c0.018-0.586,0.033-1.171,0.034-1.755c0-0.337-0.007-0.672-0.012-1.008c-0.006-0.393-0.001-0.787-0.015-1.18l0.919-0.004
				c2.457-0.01,4.258-0.017,4.552-0.021c27.948-0.36,53.345,14.344,64.525,37.337l12.111,24.901
				C483.382,274.091,483.408,274.62,483.196,275.167z"/>
			<path d="M229.822,444.747l-15.908-14.31c-2.998-2.697-7.618-2.453-10.316,0.546c-2.698,2.999-2.453,7.618,0.546,10.316
				l15.908,14.31c1.396,1.256,3.142,1.874,4.883,1.874c1.999,0,3.991-0.816,5.433-2.42
				C233.065,452.064,232.821,447.445,229.822,444.747z"/>
			<path d="M298.08,430.437l-15.908,14.309c-3,2.698-3.244,7.317-0.546,10.316c1.443,1.604,3.434,2.42,5.433,2.42
				c1.741,0,3.488-0.618,4.883-1.874l15.908-14.309c3-2.698,3.244-7.317,0.546-10.316
				C305.699,427.984,301.08,427.739,298.08,430.437z"/>
			<path d="M166.365,270.609c-15.03,0-27.257,12.227-27.257,27.257c0,4.035,3.27,7.305,7.305,7.305c4.034,0,7.305-3.27,7.305-7.305
				c0-6.974,5.674-12.647,12.648-12.647s12.648,5.674,12.648,12.647c0,4.035,3.271,7.305,7.305,7.305s7.305-3.27,7.305-7.305
				C193.622,282.836,181.395,270.609,166.365,270.609z"/>
			<path d="M345.628,270.609c-15.03,0-27.257,12.227-27.257,27.257c0,4.035,3.27,7.305,7.305,7.305c4.035,0,7.305-3.27,7.305-7.305
				c0-6.974,5.674-12.647,12.647-12.647c6.975,0,12.648,5.674,12.648,12.647c0,4.035,3.27,7.305,7.305,7.305
				c4.035,0,7.305-3.27,7.305-7.305C372.886,282.836,360.658,270.609,345.628,270.609z"/>
		</g>
	</g>
</g>
<g>
</g>
<g>
</g>
<g>
</g>
<g>
</g>
<g>
</g>
<g>
</g>
<g>
</g>
<g>
</g>
<g>
</g>
<g>
</g>
<g>
</g>
<g>
</g>
<g>
</g>
<g>
</g>
<g>
</g>
</svg>
